<svg xmlns="http://www.w3.org/2000/svg" width="512" height="512" viewBox="0 0 512 512">
  <rect width="512" height="512" fill="#1976d2" rx="100" />
  <circle cx="256" cy="256" r="160" fill="#ffffff" />
  <path d="M 256 136 
           C 240 136 226 140 215 148
           L 215 364
           C 226 372 240 376 256 376
           C 323 376 376 323 376 256
           C 376 189 323 136 256 136
           Z" 
        fill="#1976d2" />
  <path d="M 256 376
           C 272 376 286 372 297 364
           L 297 148
           C 286 140 272 136 256 136
           C 189 136 136 189 136 256
           C 136 323 189 376 256 376
           Z" 
        fill="#03a9f4" />
  <text x="256" y="270" font-family="Arial" font-size="60" font-weight="bold" text-anchor="middle" fill="white">$</text>
</svg> 